<mxfile host="app.diagrams.net" agent="Mozilla/5.0 (Windows NT 10.0; Win64; x64) AppleWebKit/537.36 (KHTML, like Gecko) Chrome/133.0.0.0 Safari/537.36" version="26.0.16">
  <diagram name="Página-1" id="ZPiCFtSXnH-WsUe-SPfP">
    <mxGraphModel dx="2739" dy="1029" grid="1" gridSize="10" guides="1" tooltips="1" connect="1" arrows="1" fold="1" page="1" pageScale="1" pageWidth="827" pageHeight="1169" math="0" shadow="0">
      <root>
        <mxCell id="0" />
        <mxCell id="1" parent="0" />
        <mxCell id="RNgZIcvrORqImwzxUZI2-1" value="" style="rounded=0;whiteSpace=wrap;html=1;" parent="1" vertex="1">
          <mxGeometry x="140" y="270" width="120" height="60" as="geometry" />
        </mxCell>
        <mxCell id="RNgZIcvrORqImwzxUZI2-2" value="Actor" style="shape=umlActor;verticalLabelPosition=bottom;verticalAlign=top;html=1;outlineConnect=0;" parent="1" vertex="1">
          <mxGeometry x="185" y="10" width="30" height="50" as="geometry" />
        </mxCell>
        <mxCell id="RNgZIcvrORqImwzxUZI2-3" value="" style="rhombus;whiteSpace=wrap;html=1;" parent="1" vertex="1">
          <mxGeometry x="260" y="160" width="70" height="40" as="geometry" />
        </mxCell>
        <mxCell id="RNgZIcvrORqImwzxUZI2-8" value="" style="endArrow=none;dashed=1;html=1;rounded=0;entryX=0.5;entryY=0.5;entryDx=0;entryDy=0;entryPerimeter=0;exitX=0.5;exitY=0;exitDx=0;exitDy=0;" parent="1" source="RNgZIcvrORqImwzxUZI2-3" target="RNgZIcvrORqImwzxUZI2-2" edge="1">
          <mxGeometry width="50" height="50" relative="1" as="geometry">
            <mxPoint x="360" y="190" as="sourcePoint" />
            <mxPoint x="410" y="140" as="targetPoint" />
            <Array as="points">
              <mxPoint x="295" y="35" />
            </Array>
          </mxGeometry>
        </mxCell>
        <mxCell id="RNgZIcvrORqImwzxUZI2-9" value="Acessa" style="text;html=1;align=center;verticalAlign=middle;whiteSpace=wrap;rounded=0;" parent="1" vertex="1">
          <mxGeometry x="265" y="165" width="60" height="30" as="geometry" />
        </mxCell>
        <mxCell id="RNgZIcvrORqImwzxUZI2-10" value="" style="endArrow=none;dashed=1;html=1;rounded=0;entryX=0;entryY=0.5;entryDx=0;entryDy=0;exitX=0.5;exitY=0;exitDx=0;exitDy=0;" parent="1" target="RNgZIcvrORqImwzxUZI2-3" edge="1">
          <mxGeometry width="50" height="50" relative="1" as="geometry">
            <mxPoint x="195" y="270" as="sourcePoint" />
            <mxPoint x="100" y="145" as="targetPoint" />
            <Array as="points">
              <mxPoint x="195" y="180" />
            </Array>
          </mxGeometry>
        </mxCell>
        <mxCell id="RNgZIcvrORqImwzxUZI2-11" value="WebSite" style="text;html=1;align=center;verticalAlign=middle;whiteSpace=wrap;rounded=0;" parent="1" vertex="1">
          <mxGeometry x="170" y="285" width="60" height="30" as="geometry" />
        </mxCell>
        <mxCell id="RNgZIcvrORqImwzxUZI2-21" value="" style="rhombus;whiteSpace=wrap;html=1;" parent="1" vertex="1">
          <mxGeometry x="165" y="420" width="70" height="40" as="geometry" />
        </mxCell>
        <mxCell id="RNgZIcvrORqImwzxUZI2-20" value="Realiza" style="text;html=1;align=center;verticalAlign=middle;whiteSpace=wrap;rounded=0;" parent="1" vertex="1">
          <mxGeometry x="170" y="425" width="60" height="30" as="geometry" />
        </mxCell>
        <mxCell id="RNgZIcvrORqImwzxUZI2-22" value="" style="endArrow=none;dashed=1;html=1;rounded=0;entryX=0.5;entryY=1;entryDx=0;entryDy=0;exitX=0.5;exitY=0;exitDx=0;exitDy=0;" parent="1" source="RNgZIcvrORqImwzxUZI2-21" target="RNgZIcvrORqImwzxUZI2-1" edge="1">
          <mxGeometry width="50" height="50" relative="1" as="geometry">
            <mxPoint x="170" y="410" as="sourcePoint" />
            <mxPoint x="220" y="360" as="targetPoint" />
          </mxGeometry>
        </mxCell>
        <mxCell id="RNgZIcvrORqImwzxUZI2-23" value="Cadastro de Usuario" style="rounded=0;whiteSpace=wrap;html=1;" parent="1" vertex="1">
          <mxGeometry x="350" y="410" width="120" height="60" as="geometry" />
        </mxCell>
        <mxCell id="RNgZIcvrORqImwzxUZI2-24" value="" style="endArrow=none;dashed=1;html=1;rounded=0;exitX=1;exitY=0.5;exitDx=0;exitDy=0;entryX=0;entryY=0.5;entryDx=0;entryDy=0;" parent="1" source="RNgZIcvrORqImwzxUZI2-20" target="RNgZIcvrORqImwzxUZI2-23" edge="1">
          <mxGeometry width="50" height="50" relative="1" as="geometry">
            <mxPoint x="430" y="440" as="sourcePoint" />
            <mxPoint x="480" y="390" as="targetPoint" />
          </mxGeometry>
        </mxCell>
        <mxCell id="RNgZIcvrORqImwzxUZI2-27" value="" style="rhombus;whiteSpace=wrap;html=1;" parent="1" vertex="1">
          <mxGeometry x="630" y="415" width="120" height="50" as="geometry" />
        </mxCell>
        <mxCell id="RNgZIcvrORqImwzxUZI2-28" value="" style="endArrow=none;dashed=1;html=1;rounded=0;entryX=0;entryY=0.5;entryDx=0;entryDy=0;exitX=1;exitY=0.5;exitDx=0;exitDy=0;" parent="1" source="RNgZIcvrORqImwzxUZI2-23" target="RNgZIcvrORqImwzxUZI2-27" edge="1">
          <mxGeometry width="50" height="50" relative="1" as="geometry">
            <mxPoint x="420" y="390" as="sourcePoint" />
            <mxPoint x="470" y="340" as="targetPoint" />
          </mxGeometry>
        </mxCell>
        <mxCell id="RNgZIcvrORqImwzxUZI2-29" value="Interage com" style="text;html=1;align=center;verticalAlign=middle;whiteSpace=wrap;rounded=0;" parent="1" vertex="1">
          <mxGeometry x="645" y="425" width="90" height="30" as="geometry" />
        </mxCell>
        <mxCell id="RNgZIcvrORqImwzxUZI2-31" value="Sistema" style="rounded=0;whiteSpace=wrap;html=1;" parent="1" vertex="1">
          <mxGeometry x="630" y="610" width="120" height="60" as="geometry" />
        </mxCell>
        <mxCell id="RNgZIcvrORqImwzxUZI2-32" value="" style="endArrow=none;dashed=1;html=1;rounded=0;entryX=0.5;entryY=1;entryDx=0;entryDy=0;exitX=0.5;exitY=0;exitDx=0;exitDy=0;" parent="1" source="RNgZIcvrORqImwzxUZI2-31" target="RNgZIcvrORqImwzxUZI2-27" edge="1">
          <mxGeometry width="50" height="50" relative="1" as="geometry">
            <mxPoint x="620" y="590" as="sourcePoint" />
            <mxPoint x="670" y="540" as="targetPoint" />
          </mxGeometry>
        </mxCell>
        <mxCell id="RNgZIcvrORqImwzxUZI2-33" value="" style="rhombus;whiteSpace=wrap;html=1;" parent="1" vertex="1">
          <mxGeometry x="350" y="615" width="120" height="50" as="geometry" />
        </mxCell>
        <mxCell id="RNgZIcvrORqImwzxUZI2-34" value="Retorna" style="text;html=1;align=center;verticalAlign=middle;whiteSpace=wrap;rounded=0;" parent="1" vertex="1">
          <mxGeometry x="380" y="625" width="60" height="30" as="geometry" />
        </mxCell>
        <mxCell id="RNgZIcvrORqImwzxUZI2-35" value="" style="endArrow=none;dashed=1;html=1;rounded=0;entryX=0;entryY=0.5;entryDx=0;entryDy=0;exitX=1;exitY=0.5;exitDx=0;exitDy=0;" parent="1" source="RNgZIcvrORqImwzxUZI2-33" target="RNgZIcvrORqImwzxUZI2-31" edge="1">
          <mxGeometry width="50" height="50" relative="1" as="geometry">
            <mxPoint x="510" y="670" as="sourcePoint" />
            <mxPoint x="560" y="620" as="targetPoint" />
          </mxGeometry>
        </mxCell>
        <mxCell id="RNgZIcvrORqImwzxUZI2-36" value="Mensagem de:&lt;div&gt;Confirmação/Erro&lt;/div&gt;" style="rounded=0;whiteSpace=wrap;html=1;" parent="1" vertex="1">
          <mxGeometry x="350" y="770" width="120" height="60" as="geometry" />
        </mxCell>
        <mxCell id="RNgZIcvrORqImwzxUZI2-38" value="" style="endArrow=none;dashed=1;html=1;rounded=0;entryX=0.5;entryY=0;entryDx=0;entryDy=0;exitX=0.5;exitY=1;exitDx=0;exitDy=0;" parent="1" source="RNgZIcvrORqImwzxUZI2-33" target="RNgZIcvrORqImwzxUZI2-36" edge="1">
          <mxGeometry width="50" height="50" relative="1" as="geometry">
            <mxPoint x="334" y="730" as="sourcePoint" />
            <mxPoint x="494" y="730" as="targetPoint" />
          </mxGeometry>
        </mxCell>
        <mxCell id="_ovT3JkyGq7jZ7AQ16X_-1" value="Visitante" style="shape=umlActor;verticalLabelPosition=bottom;verticalAlign=top;html=1;outlineConnect=0;" vertex="1" parent="1">
          <mxGeometry x="-205" y="950" width="30" height="60" as="geometry" />
        </mxCell>
        <mxCell id="_ovT3JkyGq7jZ7AQ16X_-2" value="Sistema" style="rounded=0;whiteSpace=wrap;html=1;" vertex="1" parent="1">
          <mxGeometry x="-450" y="830" width="120" height="60" as="geometry" />
        </mxCell>
        <mxCell id="_ovT3JkyGq7jZ7AQ16X_-3" value="Sistema de E-mail" style="rounded=0;whiteSpace=wrap;html=1;" vertex="1" parent="1">
          <mxGeometry x="-230" y="830" width="120" height="60" as="geometry" />
        </mxCell>
        <mxCell id="_ovT3JkyGq7jZ7AQ16X_-4" value="Banco de Dados" style="rounded=0;whiteSpace=wrap;html=1;" vertex="1" parent="1">
          <mxGeometry y="830" width="120" height="60" as="geometry" />
        </mxCell>
        <mxCell id="_ovT3JkyGq7jZ7AQ16X_-5" value="" style="endArrow=none;html=1;rounded=0;" edge="1" parent="1">
          <mxGeometry width="50" height="50" relative="1" as="geometry">
            <mxPoint x="620" y="1040" as="sourcePoint" />
            <mxPoint x="620" y="960" as="targetPoint" />
          </mxGeometry>
        </mxCell>
        <mxCell id="_ovT3JkyGq7jZ7AQ16X_-6" value="Cadastrar Usuário" style="rounded=0;whiteSpace=wrap;html=1;" vertex="1" parent="1">
          <mxGeometry x="-250" y="1140" width="120" height="60" as="geometry" />
        </mxCell>
        <mxCell id="_ovT3JkyGq7jZ7AQ16X_-9" value="Cadastro Bem-sucedido" style="rounded=0;whiteSpace=wrap;html=1;" vertex="1" parent="1">
          <mxGeometry x="-413" y="1340" width="120" height="60" as="geometry" />
        </mxCell>
        <mxCell id="_ovT3JkyGq7jZ7AQ16X_-10" value="Realiza" style="rhombus;whiteSpace=wrap;html=1;" vertex="1" parent="1">
          <mxGeometry x="-230" y="1070" width="80" height="30" as="geometry" />
        </mxCell>
        <mxCell id="_ovT3JkyGq7jZ7AQ16X_-15" value="" style="endArrow=none;html=1;rounded=0;" edge="1" parent="1" target="_ovT3JkyGq7jZ7AQ16X_-1">
          <mxGeometry width="50" height="50" relative="1" as="geometry">
            <mxPoint x="-190" y="1070" as="sourcePoint" />
            <mxPoint x="-140" y="1030" as="targetPoint" />
          </mxGeometry>
        </mxCell>
        <mxCell id="_ovT3JkyGq7jZ7AQ16X_-17" value="" style="endArrow=none;html=1;rounded=0;exitX=0.5;exitY=0;exitDx=0;exitDy=0;" edge="1" parent="1" source="_ovT3JkyGq7jZ7AQ16X_-6">
          <mxGeometry width="50" height="50" relative="1" as="geometry">
            <mxPoint x="-240" y="1150" as="sourcePoint" />
            <mxPoint x="-190" y="1100" as="targetPoint" />
          </mxGeometry>
        </mxCell>
        <mxCell id="_ovT3JkyGq7jZ7AQ16X_-20" value="" style="endArrow=none;html=1;rounded=0;exitX=0.5;exitY=0;exitDx=0;exitDy=0;entryX=0.5;entryY=1;entryDx=0;entryDy=0;" edge="1" parent="1" source="_ovT3JkyGq7jZ7AQ16X_-13" target="_ovT3JkyGq7jZ7AQ16X_-6">
          <mxGeometry width="50" height="50" relative="1" as="geometry">
            <mxPoint x="-230" y="1250" as="sourcePoint" />
            <mxPoint x="-180" y="1200" as="targetPoint" />
          </mxGeometry>
        </mxCell>
        <mxCell id="_ovT3JkyGq7jZ7AQ16X_-21" value="" style="endArrow=none;html=1;rounded=0;exitX=0.5;exitY=0;exitDx=0;exitDy=0;" edge="1" parent="1" source="_ovT3JkyGq7jZ7AQ16X_-9">
          <mxGeometry width="50" height="50" relative="1" as="geometry">
            <mxPoint x="-240" y="1310" as="sourcePoint" />
            <mxPoint x="-190" y="1260" as="targetPoint" />
          </mxGeometry>
        </mxCell>
        <mxCell id="_ovT3JkyGq7jZ7AQ16X_-22" value="Cadastro Mal-sucedido" style="rounded=0;whiteSpace=wrap;html=1;" vertex="1" parent="1">
          <mxGeometry x="-80" y="1340" width="120" height="60" as="geometry" />
        </mxCell>
        <mxCell id="_ovT3JkyGq7jZ7AQ16X_-23" value="" style="endArrow=none;html=1;rounded=0;exitX=0.5;exitY=0;exitDx=0;exitDy=0;" edge="1" parent="1" source="_ovT3JkyGq7jZ7AQ16X_-13">
          <mxGeometry width="50" height="50" relative="1" as="geometry">
            <mxPoint x="-240" y="1310" as="sourcePoint" />
            <mxPoint x="-190" y="1260" as="targetPoint" />
          </mxGeometry>
        </mxCell>
        <mxCell id="_ovT3JkyGq7jZ7AQ16X_-24" value="" style="endArrow=none;html=1;rounded=0;exitX=0.5;exitY=0;exitDx=0;exitDy=0;" edge="1" parent="1" source="_ovT3JkyGq7jZ7AQ16X_-22" target="_ovT3JkyGq7jZ7AQ16X_-13">
          <mxGeometry width="50" height="50" relative="1" as="geometry">
            <mxPoint x="-20" y="1340" as="sourcePoint" />
            <mxPoint x="-190" y="1260" as="targetPoint" />
          </mxGeometry>
        </mxCell>
        <mxCell id="_ovT3JkyGq7jZ7AQ16X_-13" value="Inclui" style="rhombus;whiteSpace=wrap;html=1;" vertex="1" parent="1">
          <mxGeometry x="-230" y="1240" width="80" height="30" as="geometry" />
        </mxCell>
        <mxCell id="_ovT3JkyGq7jZ7AQ16X_-25" value="Inclui" style="rhombus;whiteSpace=wrap;html=1;" vertex="1" parent="1">
          <mxGeometry x="-400" y="1480" width="80" height="40" as="geometry" />
        </mxCell>
        <mxCell id="_ovT3JkyGq7jZ7AQ16X_-26" value="" style="endArrow=none;html=1;rounded=0;exitX=0.5;exitY=0;exitDx=0;exitDy=0;" edge="1" parent="1" source="_ovT3JkyGq7jZ7AQ16X_-25">
          <mxGeometry width="50" height="50" relative="1" as="geometry">
            <mxPoint x="-410" y="1450" as="sourcePoint" />
            <mxPoint x="-360" y="1400" as="targetPoint" />
          </mxGeometry>
        </mxCell>
        <mxCell id="_ovT3JkyGq7jZ7AQ16X_-28" value="" style="endArrow=none;html=1;rounded=0;" edge="1" parent="1" source="_ovT3JkyGq7jZ7AQ16X_-27">
          <mxGeometry width="50" height="50" relative="1" as="geometry">
            <mxPoint x="-360" y="1610" as="sourcePoint" />
            <mxPoint x="-360" y="1520" as="targetPoint" />
          </mxGeometry>
        </mxCell>
        <mxCell id="_ovT3JkyGq7jZ7AQ16X_-29" value="" style="endArrow=none;html=1;rounded=0;entryX=0.5;entryY=1;entryDx=0;entryDy=0;" edge="1" parent="1" target="_ovT3JkyGq7jZ7AQ16X_-27">
          <mxGeometry width="50" height="50" relative="1" as="geometry">
            <mxPoint x="-360" y="1720" as="sourcePoint" />
            <mxPoint x="-350" y="1670" as="targetPoint" />
          </mxGeometry>
        </mxCell>
        <mxCell id="_ovT3JkyGq7jZ7AQ16X_-30" value="Validar Campos" style="rounded=0;whiteSpace=wrap;html=1;" vertex="1" parent="1">
          <mxGeometry x="-420" y="1780" width="120" height="60" as="geometry" />
        </mxCell>
        <mxCell id="_ovT3JkyGq7jZ7AQ16X_-31" value="Depende" style="rhombus;whiteSpace=wrap;html=1;" vertex="1" parent="1">
          <mxGeometry x="-400" y="1700" width="80" height="40" as="geometry" />
        </mxCell>
        <mxCell id="_ovT3JkyGq7jZ7AQ16X_-32" value="" style="endArrow=none;html=1;rounded=0;exitX=0.5;exitY=0;exitDx=0;exitDy=0;" edge="1" parent="1" source="_ovT3JkyGq7jZ7AQ16X_-30">
          <mxGeometry width="50" height="50" relative="1" as="geometry">
            <mxPoint x="-410" y="1790" as="sourcePoint" />
            <mxPoint x="-360" y="1740" as="targetPoint" />
          </mxGeometry>
        </mxCell>
        <mxCell id="_ovT3JkyGq7jZ7AQ16X_-33" value="Inclui" style="rhombus;whiteSpace=wrap;html=1;" vertex="1" parent="1">
          <mxGeometry x="-60" y="1480" width="80" height="40" as="geometry" />
        </mxCell>
        <mxCell id="_ovT3JkyGq7jZ7AQ16X_-34" value="" style="endArrow=none;html=1;rounded=0;exitX=0.5;exitY=0;exitDx=0;exitDy=0;" edge="1" parent="1" source="_ovT3JkyGq7jZ7AQ16X_-33">
          <mxGeometry width="50" height="50" relative="1" as="geometry">
            <mxPoint x="-70" y="1450" as="sourcePoint" />
            <mxPoint x="-20" y="1400" as="targetPoint" />
          </mxGeometry>
        </mxCell>
        <mxCell id="_ovT3JkyGq7jZ7AQ16X_-35" value="" style="endArrow=none;html=1;rounded=0;" edge="1" parent="1">
          <mxGeometry width="50" height="50" relative="1" as="geometry">
            <mxPoint x="-20" y="1600" as="sourcePoint" />
            <mxPoint x="-20" y="1520" as="targetPoint" />
          </mxGeometry>
        </mxCell>
        <mxCell id="_ovT3JkyGq7jZ7AQ16X_-36" value="Exibir Mensagem de Erro" style="rounded=0;whiteSpace=wrap;html=1;" vertex="1" parent="1">
          <mxGeometry x="-80" y="1600" width="120" height="60" as="geometry" />
        </mxCell>
        <mxCell id="_ovT3JkyGq7jZ7AQ16X_-37" value="" style="endArrow=none;html=1;rounded=0;" edge="1" parent="1" target="_ovT3JkyGq7jZ7AQ16X_-27">
          <mxGeometry width="50" height="50" relative="1" as="geometry">
            <mxPoint x="-360" y="1610" as="sourcePoint" />
            <mxPoint x="-360" y="1520" as="targetPoint" />
          </mxGeometry>
        </mxCell>
        <mxCell id="_ovT3JkyGq7jZ7AQ16X_-27" value="Exibir Mensagem de Confirmação" style="rounded=0;whiteSpace=wrap;html=1;" vertex="1" parent="1">
          <mxGeometry x="-420" y="1580" width="120" height="60" as="geometry" />
        </mxCell>
      </root>
    </mxGraphModel>
  </diagram>
</mxfile>
